# xmcd
#
# Track frame offsets:
#	150
#	12372
#	27122
#	39266
#	50617
#	61528
#	70771
#	83495
#	94158
#	102814
#	113731
#	125201
#	135284
#	141288
#	145655
#	149880
#	153262
#	156911
#	160568
#	164555
#	168882
#	173916
#	177859
#	181079
#	185640
#	190546
#	195158
#	198824
#	203323
#	207375
#	211668
#	216491
#	221075
#	225308
#	229575
#	233893
#	240059
#	245969
#	252149
#	258539
#	263554
#	270066
#	274621
#
# Disc length: 3725 seconds
#
# Revision: 1
# Processed by: cddbd v1.5.2PL0 Copyright (c) Steve Scherf et al.
# Submitted via: EasyCDDAExtractor 16.0.6.1
#
DISCID=420e8b2b
DTITLE=葛洛莉英語 BOOK I (L35-L119) - 葛洛莉英語
DYEAR=1900
DGENRE=
TTITLE0=LESSON 35
TTITLE1=LESSON 37
TTITLE2=LESSON 39
TTITLE3=LESSON 41
TTITLE4=LESSON 43
TTITLE5=LESSON 45
TTITLE6=LESSON 47
TTITLE7=LESSON 49
TTITLE8=LESSON 51
TTITLE9=LESSON 53
TTITLE10=LESSON 55
TTITLE11=LESSON 57
TTITLE12=LESSON 59
TTITLE13=LESSON 61
TTITLE14=LESSON 63
TTITLE15=LESSON 65
TTITLE16=LESSON 67
TTITLE17=LESSON 69
TTITLE18=LESSON 71
TTITLE19=LESSON 73
TTITLE20=LESSON 75
TTITLE21=LESSON 77
TTITLE22=LESSON 79
TTITLE23=LESSON 81
TTITLE24=LESSON 83
TTITLE25=LESSON 85
TTITLE26=LESSON 87
TTITLE27=LESSON 89
TTITLE28=LESSON 91
TTITLE29=LESSON 93
TTITLE30=LESSON 95
TTITLE31=LESSON 97
TTITLE32=LESSON 99
TTITLE33=LESSON 101
TTITLE34=LESSON 103
TTITLE35=LESSON 105
TTITLE36=LESSON 107
TTITLE37=LESSON 109
TTITLE38=LESSON 111
TTITLE39=LESSON 113
TTITLE40=LESSON 115
TTITLE41=LESSON 117
TTITLE42=LESSON 119
EXTD=
EXTT0=
EXTT1=
EXTT2=
EXTT3=
EXTT4=
EXTT5=
EXTT6=
EXTT7=
EXTT8=
EXTT9=
EXTT10=
EXTT11=
EXTT12=
EXTT13=
EXTT14=
EXTT15=
EXTT16=
EXTT17=
EXTT18=
EXTT19=
EXTT20=
EXTT21=
EXTT22=
EXTT23=
EXTT24=
EXTT25=
EXTT26=
EXTT27=
EXTT28=
EXTT29=
EXTT30=
EXTT31=
EXTT32=
EXTT33=
EXTT34=
EXTT35=
EXTT36=
EXTT37=
EXTT38=
EXTT39=
EXTT40=
EXTT41=
EXTT42=
PLAYORDER=
